<svg width="136" height="65" viewBox="0 0 136 65" fill="none" xmlns="http://www.w3.org/2000/svg">
<g clip-path="url(#clip0_2200_14)">
<path d="M15.3661 31.8744V47.096H8V12H15.1652V25.4269H15.5C16.1027 23.8981 17.0402 22.6352 18.3795 21.771C19.7188 20.9069 21.3929 20.4417 23.4018 20.4417C25.2768 20.4417 26.8839 20.8405 28.2232 21.6381C29.6295 22.4357 30.7009 23.5657 31.4375 25.0281C32.1741 26.4904 32.5759 28.2851 32.5759 30.3456V47.1625H25.2098V31.675C25.2098 30.0798 24.808 28.8168 24.0045 27.8863C23.2009 26.9557 21.9955 26.5569 20.5223 26.5569C19.5179 26.5569 18.6473 26.7563 17.8438 27.2216C17.1071 27.6204 16.5045 28.2851 16.0357 29.0827C15.567 29.8139 15.3661 30.7445 15.3661 31.8744Z" fill="black"/>
<path d="M40.1427 57L44.2275 47.3619L33.915 21.4387H41.482L47.7097 38.5214L53.9374 21.4387H61.9061L47.8436 57H40.1427Z" fill="black"/>
<path d="M72.6875 47.5613C70.6786 47.5613 68.8705 47.0295 67.1964 46.0325C65.5893 44.969 64.25 43.4402 63.3125 41.4461C62.375 39.452 61.9062 36.9261 61.9062 34.0015C61.9062 31.0103 62.375 28.4845 63.3795 26.4904C64.3839 24.4963 65.6562 22.9675 67.2634 21.9705C68.8705 20.9734 70.6786 20.4417 72.6205 20.4417C74.0938 20.4417 75.3661 20.7075 76.3705 21.1728C77.375 21.6381 78.1786 22.3028 78.7812 23.034C79.3839 23.7651 79.8527 24.4963 80.1875 25.2275H80.3884V12H87.7545V47.1625H80.5223V42.9084H80.1875C79.8527 43.6396 79.3839 44.3708 78.7143 45.1019C78.1116 45.8331 77.2411 46.4313 76.3036 46.8966C75.2991 47.3619 74.0937 47.5613 72.6875 47.5613ZM75.0312 41.7784C76.2366 41.7784 77.2411 41.4461 78.0446 40.7814C78.8482 40.1167 79.5179 39.2526 79.9196 38.0561C80.3884 36.8597 80.5893 35.5303 80.5893 33.935C80.5893 32.3397 80.3884 31.0103 79.9196 29.8804C79.4509 28.7504 78.8482 27.8198 78.0446 27.2216C77.2411 26.6233 76.2366 26.291 75.0312 26.291C73.8259 26.291 72.8214 26.6233 71.9509 27.288C71.1473 27.9527 70.4777 28.8168 70.0759 30.0133C69.6741 31.1433 69.4062 32.5391 69.4062 34.0015C69.4062 35.5303 69.6071 36.8597 70.0759 38.0561C70.4777 39.2526 71.1473 40.1167 71.9509 40.7814C72.7545 41.4461 73.8259 41.7784 75.0312 41.7784Z" fill="black"/>
<path d="M104.429 47.6278C101.683 47.6278 99.3395 47.096 97.3975 45.966C95.4556 44.836 93.9154 43.3072 92.844 41.2467C91.7725 39.1861 91.2368 36.7932 91.2368 34.0015C91.2368 31.2762 91.7725 28.8833 92.844 26.8892C93.9154 24.8287 95.3886 23.2334 97.3306 22.1034C99.2725 20.9734 101.549 20.3752 104.161 20.3752C105.902 20.3752 107.576 20.6411 109.049 21.2393C110.523 21.8375 111.862 22.6352 113 23.7651C114.139 24.8951 115.009 26.291 115.679 27.9527C116.281 29.6145 116.616 31.6086 116.616 33.8021V35.7962H94.1832V31.2762H109.652C109.652 30.2127 109.451 29.2821 108.982 28.4845C108.514 27.6869 107.911 27.0222 107.04 26.5569C106.237 26.0916 105.299 25.8922 104.228 25.8922C103.089 25.8922 102.152 26.158 101.281 26.6233C100.411 27.0886 99.7413 27.8198 99.2725 28.6839C98.8038 29.548 98.5359 30.4786 98.5359 31.5421V35.8626C98.5359 37.192 98.8038 38.322 99.2725 39.2526C99.7413 40.1832 100.478 40.9143 101.348 41.4461C102.219 41.9778 103.29 42.2437 104.563 42.2437C105.366 42.2437 106.103 42.1108 106.839 41.9114C107.509 41.712 108.112 41.3131 108.581 40.9143C109.049 40.449 109.451 39.9173 109.719 39.2526L116.549 39.7179C116.214 41.3131 115.478 42.7755 114.406 43.9719C113.335 45.1684 111.996 46.099 110.322 46.7637C108.581 47.2954 106.639 47.6278 104.429 47.6278Z" fill="black"/>
<path d="M123.848 47.5613C122.71 47.5613 121.705 47.1625 120.902 46.3648C120.098 45.5672 119.696 44.5701 119.696 43.4402C119.696 42.3102 120.098 41.3796 120.902 40.582C121.705 39.7843 122.71 39.3855 123.848 39.3855C124.986 39.3855 125.924 39.7843 126.728 40.582C127.531 41.3796 128 42.3766 128 43.4402C128 44.1713 127.799 44.9025 127.397 45.5007C126.995 46.0989 126.527 46.6307 125.857 46.963C125.254 47.4283 124.585 47.5613 123.848 47.5613Z" fill="#22EA36"/>
</g>
<defs>
<clipPath id="clip0_2200_14">
<rect width="120" height="45" fill="white" transform="translate(8 12)"/>
</clipPath>
</defs>
</svg>
